<?xml version="1.0" encoding="utf-8"?>
<!-- Generator: Adobe Illustrator 24.3.0, SVG Export Plug-In . SVG Version: 6.00 Build 0)  -->
<svg version="1.1" id="Layer_1" xmlns="http://www.w3.org/2000/svg" xmlns:xlink="http://www.w3.org/1999/xlink" x="0px" y="0px"
	 viewBox="0 0 283.5 87.7" style="enable-background:new 0 0 283.5 87.7;" xml:space="preserve">
<style type="text/css">
	.st0{fill:#FFFFFF;}
</style>
<path class="st0" d="M2.3,1.6c2.3,0,4.6,0,6.9,0c0.2,0,0.4,0.2,0.4,0.4c1.9,3.5,3.9,7,5.8,10.4c6,10.8,11.9,21.5,17.9,32.3
	c1.8,3.3,3.6,6.5,5.4,9.8c0.1,0.2,0.2,0.3,0.3,0.6c0.8-1.5,1.6-2.9,2.4-4.3c7.1-13,14.3-25.9,21.4-38.9c1.8-3.3,3.6-6.6,5.4-9.8
	c0.2-0.3,0.4-0.4,0.7-0.4c2.1,0,4.2,0,6.3,0c0.2,0,0.3,0,0.5,0c0,27.9,0,55.7,0,83.5c-1.9,0-3.9,0-5.8,0c0-24.6,0-49.3,0-73.9h-0.1
	c-0.1,0.1-0.2,0.3-0.2,0.4c-5.3,9.4-10.7,18.8-16,28.2c-4.4,7.8-8.9,15.6-13.3,23.5c-0.2,0.3-0.4,0.4-0.7,0.4
	c-1.1,0.2-1.7-0.3-2.3-1.3c-9.5-17-19.1-33.9-28.6-50.8c-0.1-0.1-0.2-0.3-0.3-0.6c0,24.8,0,49.4,0,74.1c-2,0-4,0-6,0
	C2.3,57.3,2.3,29.5,2.3,1.6z"/>
<path class="st0" d="M141.2,85.1c-1.7,0-3.4,0-5.1,0c0-3.6,0-7.2,0-10.9c-0.5,0.8-1,1.4-1.4,2c-3.3,4.3-7.6,6.9-12.8,8
	c-3.9,0.9-7.8,1.1-11.8,0.7c-5.6-0.6-10.5-2.9-14.7-6.6c-5.2-4.6-8.3-10.4-9.3-17.2c-2-13.9,6.5-26.8,18.6-31.1
	c3.6-1.3,7.3-1.6,11-1.2c3.3,0.3,6.6,1,9.7,2.3c4.3,1.8,7.8,4.5,10.4,8.3c0.1,0.1,0.1,0.2,0.3,0.4c0-2.3,0-4.4,0-6.6
	c1.8,0,3.4,0,5.2,0C141.2,50.6,141.2,67.8,141.2,85.1z M112.5,35.2c-0.3,0-0.4,0-0.6,0s-0.3,0-0.5,0c-5.9,0.3-10.9,2.5-14.9,6.9
	c-3.1,3.4-4.8,7.5-5.4,12c-0.6,4.6,0,9,2.1,13.1c3.8,7.3,9.8,11.6,18,12.6c4.3,0.5,8.5-0.3,12.4-2.3c5-2.6,8.6-6.6,10.8-11.8
	c1.5-3.5,2.2-7.3,1.7-11.1c-0.7-4.8-2.9-9-6.3-12.4C125.1,37.5,119.2,35.3,112.5,35.2z"/>
<path class="st0" d="M197.8,56.2c0-4.6,1.2-9.9,4.1-14.7c3.6-5.9,8.7-9.7,15.2-11.6c7.3-2.1,14.4-1.6,21.2,1.7s11.2,8.7,13.4,15.8
	c2.1,6.9,2.1,13.9-0.5,20.7c-3.2,8.6-9.5,13.8-18.4,16c-6.9,1.7-13.7,1.2-20.2-1.9c-6.9-3.3-11.4-8.7-13.6-16
	C198.1,63.3,197.8,60.3,197.8,56.2z M247.9,57.3c0-2.1-0.2-4.1-0.6-6c-1.4-6.3-4.8-11.3-10.4-14.5c-4.9-2.8-10.1-3.6-15.6-2.6
	c-7.3,1.3-12.6,5.3-15.8,12c-2.7,5.6-3.1,11.5-1.6,17.4c1.6,6.4,5.4,11.2,11.4,14c5.3,2.5,10.9,2.9,16.6,1.4
	c5.2-1.3,9.4-4.2,12.4-8.7C246.9,66.3,247.9,61.9,247.9,57.3z"/>
<path class="st0" d="M156,85.1c-1.8,0-3.5,0-5.2,0c0-16.7,0-33.3,0-50c1.7,0.1,3.3,0.1,5,0.2c0,1,0,1.9,0,2.8c0.1,0,0.2,0,0.2,0
	c1.4-2.3,3.6-3.6,6-4.6c2.6-1,5.4-1.5,8.2-1.5c3.1,0,6.1,0.3,9,1.5c4.6,1.9,7.5,5.3,9.2,9.8c1.2,3.1,1.7,6.3,1.9,9.5
	c0.1,1.7,0.1,3.4,0.1,5c0,8.9,0,17.8,0,26.6c0,0.2,0,0.4,0,0.6c-1.5,0-2.9,0-4.4,0c0-0.2,0-0.5,0-0.7c0-9.4,0-18.7,0-28.1
	c0-3.7-0.6-7.3-2.2-10.7c-1.9-4-4.8-7-9.1-8.2c-4.5-1.3-8.7-0.8-12.5,2.1c-2.6,2-4.2,4.8-5.2,7.9c-0.8,2.4-1.1,4.9-1.1,7.4
	c0,9.9,0,19.7,0,29.6C156,84.7,156,84.9,156,85.1z"/>
<path class="st0" d="M260.3,33.3c1.6,0,3.2,0,4.8,0c0.1,3,0.1,6,0.2,9c3.9-5.5,9.1-8.9,15.8-10c0,1.6,0,3.2,0,4.8
	c-0.4,0.1-0.8,0.2-1.2,0.3c-2.8,0.9-5.2,2.5-7.3,4.5c-2.8,2.7-5.1,5.8-6.4,9.5c-0.5,1.3-0.7,2.6-0.7,3.9c0,9.7,0,19.4,0,29
	c0,0.2,0,0.4,0,0.7c-1.7,0-3.4,0-5.2,0C260.3,67.8,260.3,50.6,260.3,33.3z"/>
</svg>
